data:image/svg+xml;utf8,<?xml version="1.0" encoding="UTF-8" standalone="no"?> <!DOCTYPE svg PUBLIC "-//W3C//DTD SVG 1.1//EN" "http://www.w3.org/Graphics/SVG/1.1/DTD/svg11.dtd"> <svg version="1.1" xmlns="http://www.w3.org/2000/svg" xmlns:xlink="http://www.w3.org/1999/xlink" preserveAspectRatio="xMidYMid meet" viewBox="0 0 55 55" width="55" height="55"><defs><path d="M31.1 22.12C31.1 14.59 31.1 10.4 31.1 9.57C31.1 7.8 28.79 7.1 27.81 8.57C26.38 10.72 14.9 27.94 13.46 30.09C12.67 31.29 13.53 32.88 14.96 32.88C15.56 32.88 18.54 32.88 23.92 32.88C23.92 40.41 23.92 44.6 23.92 45.43C23.92 47.22 26.23 47.9 27.21 46.43C27.23 46.4 27.33 46.26 27.5 46C35.94 33.34 40.62 26.31 41.56 24.91C42.35 23.71 41.49 22.12 40.07 22.12C38.87 22.12 35.88 22.12 31.1 22.12Z" id="e2xMaVyte6"></path><path d="M27.5 55C20.12 55 13.14 52.03 8.02 46.89C8.02 47.11 8.02 48.81 8.02 49.02C8.02 50.01 7.22 50.82 6.23 50.82C5.24 50.82 4.44 50.01 4.44 49.02C4.44 48.34 4.44 42.91 4.44 42.23C4.2 41.05 5.15 40.05 6.23 40.05C6.95 40.05 12.69 40.05 13.4 40.05C14.4 40.05 15.2 40.86 15.2 41.85C15.2 42.84 14.4 43.64 13.4 43.64C13.05 43.64 10.24 43.64 9.89 43.64C14.38 48.56 20.74 51.41 27.5 51.41C40.69 51.41 51.41 40.69 51.41 27.5C51.41 25.23 51.09 22.98 50.47 20.83C50.19 19.87 50.73 18.88 51.69 18.6C52.63 18.33 53.64 18.88 53.91 19.82C54.63 22.31 55 24.89 55 27.5C55 42.66 42.66 55 27.5 55Z" id="f2Cqps3mvV"></path><path d="M50.82 13.15C50.82 14.11 50.11 14.95 48.83 14.95C48.82 14.95 48.82 14.95 48.82 14.95C48.12 14.95 42.54 14.95 41.85 14.95C40.86 14.95 40.05 14.14 40.05 13.15C40.05 12.16 40.86 11.36 41.85 11.36C42.17 11.36 44.79 11.36 45.11 11.36C40.62 6.44 34.26 3.59 27.5 3.59C14.31 3.59 3.59 14.31 3.59 27.5C3.59 29.77 3.91 32.02 4.53 34.17C4.81 35.13 4.27 36.12 3.31 36.4C3.14 36.44 2.98 36.47 2.81 36.47C2.03 36.47 1.32 35.95 1.09 35.18C0.37 32.69 0 30.11 0 27.5C0 12.34 12.34 0 27.5 0C35.01 0 42.09 3.06 47.23 8.37C47.23 8.13 47.23 6.22 47.23 5.98C47.23 4.99 48.03 4.18 49.02 4.18C50.01 4.18 50.82 4.99 50.82 5.98C50.82 5.98 50.82 12.43 50.82 13.15Z" id="c1hAo5eouE"></path></defs><g>

<g><g><use xlink:href="#e2xMaVyte6" opacity="1" fill="#ffe477" fill-opacity="1"></use><g><use xlink:href="#e2xMaVyte6" opacity="1" fill-opacity="0" stroke="#000000" stroke-width="1" stroke-opacity="0"></use></g></g><g><use xlink:href="#f2Cqps3mvV" opacity="1" fill="#7ccc92" fill-opacity="1"></use><g><use xlink:href="#f2Cqps3mvV" opacity="1" fill-opacity="0" stroke="#000000" stroke-width="1" stroke-opacity="0"></use></g></g><g><use xlink:href="#c1hAo5eouE" opacity="1" fill="#7ccc92" fill-opacity="1"></use><g><use xlink:href="#c1hAo5eouE" opacity="1" fill-opacity="0" stroke="#000000" stroke-width="1" stroke-opacity="0"></use></g></g></g></g></svg>