<svg xmlns="http://www.w3.org/2000/svg" version="1.1" xmlns:xlink="http://www.w3.org/1999/xlink" xmlns:svgjs="http://svgjs.com/svgjs" width="512" height="512" x="0" y="0" viewBox="0 0 512 512" style="enable-background:new 0 0 512 512" xml:space="preserve" class=""><g>
<path xmlns="http://www.w3.org/2000/svg" style="" d="M372.981,205.913h-83.478V89.043c0-16.473-21.482-22.929-30.609-9.238L125.329,280.153  c-7.346,11.13,0.668,25.934,13.913,25.934h83.478v116.87c0,16.584,21.482,22.929,30.609,9.238l2.671-4.007l130.894-196.341  C394.24,220.717,386.226,205.913,372.981,205.913z" fill="#ffe477" data-original="#ffe477" class=""></path>
<g xmlns="http://www.w3.org/2000/svg">
	<path style="" d="M512,256c0,141.134-114.867,256-256,256c-68.674,0-133.677-27.603-181.315-75.464v19.812   c0,9.238-7.456,16.696-16.696,16.696c-9.238,0-16.696-7.457-16.696-16.696v-63.221c-2.226-11.02,6.679-20.257,16.696-20.257h66.783   c9.239,0,16.696,7.457,16.696,16.696c0,9.238-7.456,16.696-16.696,16.696H92.049c41.85,45.746,101.064,72.348,163.951,72.348   c122.769,0,222.609-99.84,222.609-222.609c0-21.148-3.005-42.073-8.793-62.108c-2.56-8.904,2.449-18.143,11.353-20.703   c8.793-2.56,18.143,2.56,20.704,11.353C508.548,207.694,512,231.736,512,256z" fill="#7ccc92" data-original="#7ccc92" class=""></path>
	<path style="" d="M473.043,55.652v66.783c0,8.904-6.568,16.696-18.475,16.696c-0.111,0-0.111,0-0.111,0h-64.892   c-9.239,0-16.696-7.457-16.696-16.696s7.456-16.696,16.696-16.696h30.386C378.101,59.993,318.887,33.391,256,33.391   c-122.769,0-222.609,99.84-222.609,222.609c0,21.148,3.005,42.073,8.793,62.108c2.56,8.904-2.449,18.143-11.353,20.703   c-1.558,0.445-3.117,0.668-4.675,0.668c-7.235,0-13.913-4.786-16.029-12.021C3.452,304.306,0,280.264,0,256   C0,114.866,114.867,0,256,0c69.899,0,135.791,28.494,183.652,77.913V55.652c0-9.238,7.456-16.696,16.696-16.696   C465.587,38.957,473.043,46.414,473.043,55.652z" fill="#7ccc92" data-original="#7ccc92" class=""></path>
</g>
</g>
</svg>