<?xml version="1.0" encoding="UTF-8" standalone="no"?>
<!DOCTYPE svg PUBLIC "-//W3C//DTD SVG 1.1//EN" "http://www.w3.org/Graphics/SVG/1.1/DTD/svg11.dtd">
<svg version="1.1" xmlns="http://www.w3.org/2000/svg" xmlns:xlink="http://www.w3.org/1999/xlink" preserveAspectRatio="xMidYMid meet" viewBox="0 0 112 112" width="112" height="112"><defs><path d="M63.33 45.29C63.33 29.87 63.33 21.3 63.33 19.58C63.33 15.96 58.63 14.54 56.63 17.55C53.71 21.96 30.34 57.21 27.42 61.62C25.81 64.07 27.56 67.32 30.46 67.32C31.68 67.32 37.76 67.32 48.72 67.32C48.72 82.75 48.72 91.32 48.72 93.03C48.72 96.68 53.42 98.07 55.42 95.06C55.45 95 55.65 94.71 56 94.18C73.18 68.27 82.72 53.87 84.63 50.99C86.24 48.55 84.49 45.29 81.59 45.29C79.15 45.29 73.07 45.29 63.33 45.29Z" id="aVrjZazLa"></path><path d="M56 112C40.98 112 26.76 105.93 16.34 95.4C16.34 95.84 16.34 99.32 16.34 99.76C16.34 101.79 14.71 103.43 12.69 103.43C10.66 103.43 9.03 101.79 9.03 99.76C9.03 98.37 9.03 87.24 9.03 85.85C8.55 83.43 10.49 81.4 12.69 81.4C14.15 81.4 25.83 81.4 27.29 81.4C29.31 81.4 30.95 83.04 30.95 85.07C30.95 87.1 29.32 88.74 27.29 88.74C26.58 88.74 20.85 88.74 20.14 88.74C29.29 98.8 42.24 104.66 56 104.66C82.86 104.66 104.7 82.7 104.7 55.69C104.7 51.04 104.04 46.44 102.77 42.03C102.21 40.07 103.31 38.04 105.26 37.48C107.18 36.92 109.22 38.04 109.78 39.98C111.24 45.07 112 50.36 112 55.69C112 86.74 86.87 112 56 112Z" id="c2DVNjkMWh"></path><path d="M103.48 26.93C103.48 28.89 102.04 30.6 99.44 30.6C99.41 30.6 99.41 30.6 99.41 30.6C97.99 30.6 86.64 30.6 85.22 30.6C83.2 30.6 81.57 28.96 81.57 26.93C81.57 24.9 83.2 23.26 85.22 23.26C85.88 23.26 91.2 23.26 91.86 23.26C82.71 13.2 69.76 7.34 56 7.34C29.14 7.34 7.3 29.3 7.3 56.31C7.3 60.96 7.96 65.56 9.23 69.97C9.79 71.93 8.69 73.96 6.74 74.52C6.4 74.62 6.06 74.67 5.72 74.67C4.14 74.67 2.68 73.62 2.22 72.02C0.76 66.93 0 61.64 0 56.31C0 25.26 25.13 0 56 0C71.29 0 85.7 6.27 96.17 17.14C96.17 16.65 96.17 12.73 96.17 12.24C96.17 10.21 97.8 8.57 99.83 8.57C101.85 8.57 103.48 10.21 103.48 12.24C103.48 12.24 103.48 25.46 103.48 26.93Z" id="d3s1wYgNC"></path></defs><g><g><g><use xlink:href="#aVrjZazLa" opacity="1" fill="#ffe477" fill-opacity="1"></use><g><use xlink:href="#aVrjZazLa" opacity="1" fill-opacity="0" stroke="#000000" stroke-width="1" stroke-opacity="0"></use></g></g><g><use xlink:href="#c2DVNjkMWh" opacity="1" fill="#7ccc92" fill-opacity="1"></use><g><use xlink:href="#c2DVNjkMWh" opacity="1" fill-opacity="0" stroke="#1b9256" stroke-width="0.5" stroke-opacity="1"></use></g></g><g><use xlink:href="#d3s1wYgNC" opacity="1" fill="#7ccc92" fill-opacity="1"></use><g><use xlink:href="#d3s1wYgNC" opacity="1" fill-opacity="0" stroke="#1b9256" stroke-width="0.5" stroke-opacity="1"></use></g></g></g></g></svg>